{"title":"Glastonbury 2016 - Ronnie Spector","uid":15435402,"size":447493162,"categoryP":"video","categoryS":"hd___tv_shows","magnet":"?xt=urn:btih:101acf367ada55e9026027c8c0a0fc5643810bd0&amp;dn=Glastonbury+2016+-+Ronnie+Spector&amp;tr=udp%3A%2F%2Ftracker.leechers-paradise.org%3A6969&amp;tr=udp%3A%2F%2Fzer0day.ch%3A1337&amp;tr=udp%3A%2F%2Fopen.demonii.com%3A1337&amp;tr=udp%3A%2F%2Ftracker.coppersurfer.tk%3A6969&amp;tr=udp%3A%2F%2Fexodus.desync.com%3A6969","seeders":1,"leechers":1,"uploader":"RoaElson","files":2,"time":1469754196,"description":"Glastonbury 2016: Ronnie Spector\r\n\r\nThe Ronettes' lead singer delivers a dose of 60s pop on the Park Stage.\r\n\r\nIs This What I Get For Loving You \r\nI Would Rather Be With the Girls \r\nWhat I'd Say \r\nThe Best Part of Breaking Up \r\nBack to Black\r\nBe My Baby\r\n\r\nFirst Broadcast: 24 June 2016\r\nDuration: 25 minutes\r\n\r\nMedia info:-\r\n\r\n\r\nGeneral\r\nFormat : MPEG-4\r\nFormat profile : Base Media\r\nCodec ID : isom (isom/iso2/avc1/mp41)\r\nFile size : 426 MiB\r\nDuration : 24mn 50s\r\nOverall bit rate mode : Variable\r\nOverall bit rate : 2 397 Kbps\r\n\r\n\r\nVideo\r\nID : 1\r\nFormat : AVC\r\nFormat/Info : Advanced Video Codec\r\nFormat profile :   \r\nFormat settings, CABAC : Yes\r\nFormat settings, ReFrames : 2 frames\r\nCodec ID : avc1\r\nCodec ID/Info : Advanced Video Coding\r\nDuration : 24mn 50s\r\nBit rate mode : Variable\r\nBit rate : 2 298 Kbps\r\nMaximum bit rate : 3 500 Kbps\r\nWidth : 1 280 pixels\r\nHeight : 720 pixels\r\nDisplay aspect ratio : 16:9\r\nFrame rate mode : Constant\r\nFrame rate : 25.000 fps\r\nColor space : YUV\r\nChroma subsampling : 4:2:0\r\nBit depth : 8 bits\r\nScan type : Progressive\r\nBits/(Pixel*Frame) : 0.100\r\nStream size : 408 MiB (96%)\r\n\r\nAudio\r\nID : 2\r\nFormat : AAC\r\nFormat/Info : Advanced Audio Codec\r\nFormat profile : LC\r\nCodec ID : 40\r\nDuration : 24mn 50s\r\nBit rate mode : Constant\r\nBit rate : 93.5 Kbps\r\nChannel(s) : 2 channels\r\nChannel positions : Front: L R\r\nSampling rate : 48.0 KHz\r\nFrame rate : 46.875 fps (1024 spf)\r\nCompression mode : Lossy\r\nStream size : 16.6 MiB (4%)","torrent":{"xt":"urn:btih:101acf367ada55e9026027c8c0a0fc5643810bd0","amp;dn":"Glastonbury+2016+-+Ronnie+Spector","amp;tr":["udp%3A%2F%2Ftracker.leechers-paradise.org%3A6969","udp%3A%2F%2Fzer0day.ch%3A1337","udp%3A%2F%2Fopen.demonii.com%3A1337","udp%3A%2F%2Ftracker.coppersurfer.tk%3A6969","udp%3A%2F%2Fexodus.desync.com%3A6969"],"infoHash":"101acf367ada55e9026027c8c0a0fc5643810bd0","infoHashBuffer":{"type":"Buffer","data":[16,26,207,54,122,218,85,233,2,96,39,200,192,160,252,86,67,129,11,208]},"announce":[],"urlList":[]}}